PathFileType	4	(X/Y/Z)	C:\Users\Basilio\Documents\Thesis Gigler\squatting_fais\c3dfiles\047\SLS_pre_front3\markers_experimental.trc
DataRate	CameraRate	NumFrames	NumMarkers	Units	OrigDataRate	OrigDataStartFrame	OrigNumFrames
200.000000	200.000000	4	60	mm	200.000000	0	1340
Frame#	Time	FHD			LBHD			RBHD			C7			T10			CLAV			LSHO			LUUPA			LMUPA			LDUPA			LLEP			LMEP			LRAD			LUL			LRFIN			RSHO			RUPA1			RMUPA			RDUPA			RLEP			RMEP			RRAD			RUL			RUFIN			LASI			RASI			USACR			LSACR			RSACR			LTHI1			LTHI2			LTHI3			LTHI4			LLFC			LMFC			LTIB1			LTIB2			LTIB3			LTIB4			LLMAL			LMMAL			LMT1			LMT2			LMT5			RTHI			RTHI2			RTHI3			RTHI4			RLFC			RMFC			RTIB1			RTIB2			RTIB3			RTIB4			RLMAL			RMMAL			RHEE			RMT1			RMT2			RMT5			
		X1	Y1	Z1	X2	Y2	Z2	X3	Y3	Z3	X4	Y4	Z4	X5	Y5	Z5	X6	Y6	Z6	X7	Y7	Z7	X8	Y8	Z8	X9	Y9	Z9	X10	Y10	Z10	X11	Y11	Z11	X12	Y12	Z12	X13	Y13	Z13	X14	Y14	Z14	X15	Y15	Z15	X16	Y16	Z16	X17	Y17	Z17	X18	Y18	Z18	X19	Y19	Z19	X20	Y20	Z20	X21	Y21	Z21	X22	Y22	Z22	X23	Y23	Z23	X24	Y24	Z24	X25	Y25	Z25	X26	Y26	Z26	X27	Y27	Z27	X28	Y28	Z28	X29	Y29	Z29	X30	Y30	Z30	X31	Y31	Z31	X32	Y32	Z32	X33	Y33	Z33	X34	Y34	Z34	X35	Y35	Z35	X36	Y36	Z36	X37	Y37	Z37	X38	Y38	Z38	X39	Y39	Z39	X40	Y40	Z40	X41	Y41	Z41	X42	Y42	Z42	X43	Y43	Z43	X44	Y44	Z44	X45	Y45	Z45	X46	Y46	Z46	X47	Y47	Z47	X48	Y48	Z48	X49	Y49	Z49	X50	Y50	Z50	X51	Y51	Z51	X52	Y52	Z52	X53	Y53	Z53	X54	Y54	Z54	X55	Y55	Z55	X56	Y56	Z56	X57	Y57	Z57	X58	Y58	Z58	X59	Y59	Z59	X60	Y60	Z60	

1	0	-245.2378692626954	1737.80078125	-1062.394897460938	-418.572479248047	1696.391967773438	-1103.27490234375	-407.1645812988282	1701.086059570313	-955.4072265625002	-436.2973937988282	1511.474975585938	-1026.957763671875	-423.4404907226564	1199.01953125	-1008.944519042969	-279.4434204101563	1474.937255859375	-1048.8115234375	-362.8971862792969	1500.792724609375	-1192.256225585938	-263.6009216308594	1437.7109375	-1318.76171875	-243.1003570556641	1482.35595703125	-1312.755126953125	-202.0025939941407	1452.428955078125	-1344.022094726563	-144.5109100341797	1479.721923828125	-1363.052978515625	-109.216423034668	1424.838134765625	-1316.380737304688	120.8280258178711	1523.288330078125	-1363.84228515625	102.7970428466797	1530.027709960938	-1439.27197265625	198.2720031738282	1551.539794921875	-1394.73095703125	-328.2255249023438	1519.608642578125	-901.0955810546877	-187.4602355957032	1468.251831054688	-797.811462402344	-165.635986328125	1507.342407226563	-818.9747314453127	-118.3772888183594	1474.637451171875	-800.0266723632815	-53.14633178710939	1495.974609375	-810.184509277344	-39.55862045288087	1434.412353515625	-862.900817871094	204.0940093994141	1531.19140625	-888.5561523437502	200.6604766845704	1538.60888671875	-813.880065917969	283.5363159179688	1554.844970703125	-876.5214843750002	-231.2725524902344	991.0205688476565	-1107.2314453125	-227.1582641601563	1015.457946777344	-878.029968261719	-418.620574951172	1062.859130859375	-999.5108642578127	-416.6444091796876	1028.40185546875	-1025.8212890625	-420.1262207031251	1033.581176757813	-967.0549926757815	-307.4778442382813	825.6260986328127	-1166.254516601563	-267.2192687988282	751.4197998046876	-1164.606201171875	-218.8371887207032	759.5147094726564	-1155.754638671875	-291.8790588378907	695.9805297851564	-1155.75	-305.2272033691407	523.7814331054689	-1114.811889648438	-270.4243774414063	518.4608154296876	-996.757019042969	-275.4834289550782	340.4501647949219	-1013.075988769531	-286.6794433593751	290.8351135253907	-1086.567138671875	-268.7053527832032	289.8800659179688	-1041.390502929688	-283.3953247070313	214.9280090332032	-1009.011840820313	-336.0189514160157	117.9936447143555	-1049.29443359375	-313.1417846679688	135.4194488525391	-963.9735107421877	-191.4387817382813	62.47800064086915	-979.2623291015627	-189.2697448730469	59.55682754516603	-1023.758544921875	-237.7242126464844	44.51637649536134	-1069.246337890625	-217.118881225586	853.6448974609377	-777.224792480469	-151.2907867431641	842.197692871094	-783.7932128906252	-130.9532318115235	864.5899047851565	-795.667419433594	-114.117546081543	767.2716064453126	-787.6262817382815	-8.732755661010744	666.0799560546876	-809.4493408203127	3.507046222686768	662.7149658203126	-934.819519042969	87.45124816894533	575.6234130859376	-831.9559326171877	81.94770812988283	477.3572082519532	-781.8172607421877	116.6056442260742	497.309051513672	-806.0183105468752	144.1973114013672	458.1796875000001	-839.7053222656252	169.4535827636719	301.4485473632813	-797.9727172851565	173.8589172363282	316.1026306152344	-888.9173583984377	124.5097274780274	242.9274291992188	-838.5034790039065	321.7717285156251	299.3564758300782	-892.3377685546877	328.2558593750001	311.6003112792969	-848.8414306640627	302.5418701171876	276.5481567382813	-784.7050781250002	
2	0.005	-244.4453582763672	1738.334106445313	-1063.665649414063	-418.4474487304689	1696.363037109375	-1103.380737304688	-407.4396972656251	1701.078247070313	-955.384460449219	-436.2745361328126	1511.485961914063	-1026.988403320313	-423.4929809570314	1199.006958007813	-1009.024719238281	-279.4695129394532	1474.929077148438	-1048.75244140625	-362.8049926757813	1500.7939453125	-1192.272827148438	-263.5730285644532	1437.728393554688	-1318.776489257813	-243.0413665771485	1482.326171875	-1312.714599609375	-201.898910522461	1452.394897460938	-1343.998291015625	-144.4048156738282	1479.723266601563	-1362.969604492188	-109.1406173706055	1424.768188476563	-1316.320434570313	120.9513854980469	1523.26513671875	-1363.718627929688	102.9823913574219	1530.030883789063	-1439.119873046875	198.3354187011719	1551.522827148438	-1394.54296875	-328.3693847656251	1519.656494140625	-901.0610961914065	-187.5823822021485	1468.303955078125	-797.7529296875002	-165.7503814697266	1507.33740234375	-818.9333496093752	-118.5478439331055	1474.59716796875	-799.9281005859377	-53.18349456787111	1495.98876953125	-810.088317871094	-39.59077453613282	1434.4111328125	-862.9187011718752	204.1158599853516	1531.185791015625	-888.4194946289065	200.5076293945313	1538.58984375	-813.5994262695315	283.4446105957032	1554.793823242188	-876.1840820312502	-231.3313140869141	990.9613037109377	-1107.261352539063	-227.2397155761719	1015.457397460938	-878.0737304687502	-418.9928283691407	1062.646362304688	-999.7160644531252	-416.7229919433595	1028.4208984375	-1025.859130859375	-420.1778869628907	1033.570190429688	-967.136169433594	-307.4926147460938	825.6265869140627	-1166.271362304688	-267.3193359375001	751.4595947265626	-1164.614013671875	-218.9596710205079	759.5200805664064	-1155.69580078125	-292.0059509277344	696.0394287109376	-1155.768920898438	-305.4486694335938	523.8074340820314	-1114.80419921875	-270.5563659667969	518.5080566406251	-996.701110839844	-275.6071166992188	340.4326782226563	-1013.149291992188	-286.4567565917969	290.7779846191407	-1087.001831054688	-268.8460693359376	289.8128967285157	-1041.476318359375	-283.3957824707032	214.9490966796876	-1009.042114257813	-336.0722656250001	117.999870300293	-1049.318969726563	-313.1420288085938	135.1406860351563	-963.8721313476565	-191.4744873046875	62.46843338012697	-979.2969970703127	-189.3434448242188	59.54738998413087	-1023.844177246094	-237.7298736572266	44.49088287353516	-1069.256469726563	-217.2059326171876	853.6287841796877	-777.1296386718752	-151.3973388671875	842.0084228515627	-783.3776855468752	-131.0433044433594	864.6734619140627	-795.5922851562502	-114.1789169311524	767.3043823242189	-787.5878906250002	-8.732730865478517	666.1948852539064	-809.359069824219	3.509979248046876	662.7968139648439	-934.6871337890627	87.56737518310548	575.9207153320314	-831.876403808594	82.02496337890626	477.8625488281251	-782.0130615234377	116.7421188354492	497.4947814941407	-805.8372192382815	144.3367919921875	458.4498596191407	-839.494567871094	169.790267944336	301.7628173828126	-797.7708740234377	173.9635009765625	316.2211914062501	-888.6651611328127	124.8806457519532	243.1014709472657	-838.2652587890627	322.1965637207032	299.7894897460938	-891.9650878906252	328.5625000000001	311.9872436523438	-848.5831298828127	302.9611816406251	277.2700805664063	-784.7044677734377	
3	0.01	-245.4240112304688	1737.822387695313	-1062.317138671875	-418.5506896972657	1696.32958984375	-1103.43701171875	-407.6673278808595	1701.07958984375	-955.4376220703127	-436.3128967285157	1511.527465820313	-1027.091430664063	-423.5380249023439	1199.01904296875	-1009.099060058594	-279.4645996093751	1474.901000976563	-1048.753540039063	-362.7858581542969	1500.779174804688	-1192.279174804688	-264.7561035156251	1438.223022460938	-1318.431030273438	-242.9476165771485	1482.329223632813	-1312.652099609375	-201.7651367187501	1452.40576171875	-1343.931396484375	-144.3113861083985	1479.689819335938	-1362.94970703125	-108.9960403442383	1424.81396484375	-1316.254150390625	121.0421142578125	1523.2646484375	-1363.552734375	103.1208419799805	1530.020751953125	-1439.025024414063	198.4295196533204	1551.53955078125	-1394.379028320313	-328.5112609863282	1519.64404296875	-901.043151855469	-187.6492767333985	1468.273803710938	-797.7307128906252	-165.8592834472657	1507.364868164063	-818.856872558594	-118.7458877563477	1474.563598632813	-799.790466308594	-53.41068267822267	1495.94482421875	-809.9670410156252	-39.63494873046876	1434.404174804688	-862.855407714844	203.8724822998047	1531.156005859375	-888.1394042968752	200.2070007324219	1538.642456054688	-813.2770996093752	283.1661987304688	1554.705688476563	-875.7336425781252	-231.3098144531251	990.9900512695315	-1107.25830078125	-227.268051147461	1015.473510742188	-878.1030883789065	-419.027801513672	1062.6337890625	-999.7457275390627	-416.794403076172	1028.39697265625	-1025.9384765625	-420.1192626953126	1033.5556640625	-967.2071533203127	-307.5914001464844	825.6876220703127	-1166.34130859375	-267.3115234375001	751.5155639648439	-1164.631103515625	-219.0912475585938	759.5043945312501	-1155.732666015625	-292.0982666015626	696.0558471679689	-1155.806762695313	-305.6002197265626	523.8021240234376	-1114.801513671875	-270.8402404785157	518.5137939453126	-996.6462402343752	-275.6161499023438	340.4901123046876	-1013.184936523438	-286.5112915039063	290.7872924804688	-1087.04931640625	-269.2552185058594	290.2853393554688	-1041.27392578125	-283.4313354492188	214.9403686523438	-1009.087158203125	-336.1284484863282	117.9561462402344	-1049.311279296875	-313.1108703613282	135.1832122802735	-963.9268188476565	-191.5122680664063	62.49626541137697	-979.3213500976565	-189.2444000244141	59.53170394897462	-1023.869323730469	-237.7286071777344	44.47145462036134	-1069.28759765625	-217.3638763427735	853.6186523437502	-777.0815429687502	-151.4474487304688	842.0802001953127	-783.2844238281252	-131.099105834961	864.7144775390627	-795.5870361328127	-114.1590347290039	767.3967895507814	-787.5086669921877	-8.796098709106447	666.2928466796876	-809.1905517578127	3.497265577316285	662.8815917968751	-934.5176391601565	87.63962554931642	576.0787353515626	-831.768737792969	82.08069610595705	477.7947082519532	-781.4878540039065	116.8525772094727	497.6759338378907	-805.5540771484377	144.4294891357422	458.7498474121095	-839.1745605468752	170.0594787597657	302.0110778808594	-797.5727539062502	174.1129302978516	316.3975830078126	-888.3300781250002	125.1038665771485	243.4036254882813	-838.0405273437502	322.4322204589844	300.1001281738282	-891.6199951171877	328.9148559570313	312.3351745605469	-848.2640380859377	303.2078857421876	277.8230590820313	-784.3822021484377	
4	0.015	-245.6994018554688	1737.791259765625	-1062.241455078125	-418.5781250000001	1696.3251953125	-1103.54833984375	-407.8057861328126	1701.06201171875	-955.5266723632815	-436.3040771484376	1511.50927734375	-1027.168090820313	-423.5991210937501	1199.066772460938	-1009.173828125	-279.4331359863282	1474.944458007813	-1048.757202148438	-362.7502136230469	1500.779174804688	-1192.293579101563	-263.5320434570313	1437.655517578125	-1318.634765625	-242.9283447265626	1482.28076171875	-1312.653930664063	-201.6736145019532	1452.421264648438	-1343.8984375	-144.2143096923828	1479.71142578125	-1362.86962890625	-108.8915786743164	1424.7607421875	-1316.230224609375	121.1103668212891	1523.252075195313	-1363.396728515625	103.3206405639649	1530.030395507813	-1438.892944335938	198.5047607421876	1551.500854492188	-1394.214721679688	-328.5800170898438	1519.707885742188	-901.0767211914065	-187.7948608398438	1468.331909179688	-797.6375732421877	-165.9730834960938	1507.360595703125	-818.8078613281252	-118.893310546875	1474.5546875	-799.6660156250002	-53.55403518676759	1495.8798828125	-809.7966308593752	-39.75458526611329	1434.3369140625	-862.6853027343752	203.8240814208985	1531.145385742188	-887.874694824219	200.1925964355469	1538.628295898438	-813.1785278320315	282.9655456542969	1554.616577148438	-875.3732910156252	-231.3442840576172	990.9739990234377	-1107.231079101563	-227.2850341796876	1015.487243652344	-878.063171386719	-419.1101379394532	1062.65087890625	-999.7854003906252	-416.8476867675782	1028.406127929688	-1025.972778320313	-420.2254333496095	1033.588256835938	-967.2424926757815	-307.6882324218751	825.687927246094	-1166.31689453125	-267.4102478027344	751.5108642578126	-1164.611206054688	-219.2286987304688	759.5093994140626	-1155.678588867188	-292.1808166503907	696.0857543945314	-1155.834350585938	-305.7649536132813	523.8680419921876	-1114.865966796875	-271.0710449218751	518.5085449218751	-996.556091308594	-275.7393798828126	340.5050354003907	-1013.202270507813	-286.9477539062501	290.9969482421876	-1086.736206054688	-269.3178405761719	290.3142089843751	-1041.421752929688	-283.4353332519532	214.9513854980469	-1009.194213867188	-336.0728759765626	117.9232788085938	-1049.38623046875	-313.1131591796876	135.2028350830078	-964.0231933593752	-191.3282775878907	62.52873611450197	-979.3430786132815	-189.2444915771485	59.50329208374025	-1023.874877929688	-237.6793518066407	44.42044830322266	-1069.30615234375	-217.4468231201172	853.6372680664065	-777.0627441406252	-151.4888000488282	842.1293945312502	-783.2796020507815	-131.1590423583985	864.7611083984377	-795.5777587890627	-114.2175521850586	767.4978027343751	-787.4183349609377	-8.838821411132814	666.4226684570314	-809.0554199218752	3.526586771011353	662.9921264648439	-934.3592529296877	87.75759124755861	576.2570190429689	-831.6341552734377	82.33724975585939	478.2950744628907	-781.6238403320315	116.923080444336	497.8617553710939	-805.367614746094	144.6402587890625	459.0192260742189	-838.966735839844	170.4126129150391	302.3457946777344	-797.3343505859377	174.4173736572266	316.6415100097657	-887.9964599609377	125.5264053344727	243.6849212646485	-837.8724365234377	322.7692871093751	300.5363464355469	-891.433532714844	329.2156982421876	312.7810363769532	-847.9580078125002	303.4544677734376	278.1644592285157	-784.1690063476565	
